<?xml version="1.0" encoding="UTF-8" standalone="no"?>
<!DOCTYPE svg PUBLIC "-//W3C//DTD SVG 1.1//EN"
 "http://www.w3.org/Graphics/SVG/1.1/DTD/svg11.dtd">
<!-- Generated by graphviz version 2.38.0 (20140413.2041)
 -->
<!-- Title: G Pages: 1 -->
<svg width="1012pt" height="764pt"
 viewBox="0.00 0.00 1011.58 764.00" xmlns="http://www.w3.org/2000/svg" xmlns:xlink="http://www.w3.org/1999/xlink">
<g id="graph0" class="graph" transform="scale(1 1) rotate(0) translate(4 760)">
<title>G</title>
<polygon fill="white" stroke="none" points="-4,4 -4,-760 1007.58,-760 1007.58,4 -4,4"/>
<!-- BranchStatementxx285961336 -->
<g id="node1" class="node"><title>BranchStatementxx285961336</title>
<ellipse fill="none" stroke="black" cx="393.945" cy="-738" rx="53.8905" ry="18"/>
<text text-anchor="middle" x="393.945" y="-734.3" font-family="Times New Roman,serif" font-size="14.00">[BRANCH]</text>
</g>
<!-- FunctionCallStatementxx241358679 -->
<g id="node2" class="node"><title>FunctionCallStatementxx241358679</title>
<ellipse fill="none" stroke="black" cx="393.945" cy="-666" rx="156.772" ry="18"/>
<text text-anchor="middle" x="393.945" y="-662.3" font-family="Times New Roman,serif" font-size="14.00">[FUNCTION_CALL]DATA_UPDATE</text>
</g>
<!-- BranchStatementxx285961336&#45;&gt;FunctionCallStatementxx241358679 -->
<g id="edge1" class="edge"><title>BranchStatementxx285961336&#45;&gt;FunctionCallStatementxx241358679</title>
<path fill="none" stroke="black" d="M393.945,-719.697C393.945,-711.983 393.945,-702.712 393.945,-694.112"/>
<polygon fill="black" stroke="black" points="397.445,-694.104 393.945,-684.104 390.445,-694.104 397.445,-694.104"/>
</g>
<!-- FunctionCallStatementxx1501506879 -->
<g id="node3" class="node"><title>FunctionCallStatementxx1501506879</title>
<ellipse fill="none" stroke="black" cx="263.945" cy="-594" rx="165.171" ry="18"/>
<text text-anchor="middle" x="263.945" y="-590.3" font-family="Times New Roman,serif" font-size="14.00">[FUNCTION_CALL]DATA_RETRIEVE</text>
</g>
<!-- FunctionCallStatementxx241358679&#45;&gt;FunctionCallStatementxx1501506879 -->
<g id="edge6" class="edge"><title>FunctionCallStatementxx241358679&#45;&gt;FunctionCallStatementxx1501506879</title>
<path fill="none" stroke="black" d="M362.807,-648.233C345.249,-638.779 323.117,-626.862 304.247,-616.701"/>
<polygon fill="black" stroke="black" points="305.744,-613.532 295.28,-611.873 302.425,-619.695 305.744,-613.532"/>
</g>
<!-- BranchStatementxx838162443 -->
<g id="node11" class="node"><title>BranchStatementxx838162443</title>
<ellipse fill="none" stroke="black" cx="523.945" cy="-594" rx="53.8905" ry="18"/>
<text text-anchor="middle" x="523.945" y="-590.3" font-family="Times New Roman,serif" font-size="14.00">[BRANCH]</text>
</g>
<!-- FunctionCallStatementxx241358679&#45;&gt;BranchStatementxx838162443 -->
<g id="edge11" class="edge"><title>FunctionCallStatementxx241358679&#45;&gt;BranchStatementxx838162443</title>
<path fill="none" stroke="black" d="M425.083,-648.233C443.889,-638.107 467.941,-625.156 487.612,-614.564"/>
<polygon fill="black" stroke="black" points="489.445,-617.552 496.59,-609.73 486.126,-611.389 489.445,-617.552"/>
</g>
<!-- BranchStatementxx1038416182 -->
<g id="node4" class="node"><title>BranchStatementxx1038416182</title>
<ellipse fill="none" stroke="black" cx="251.945" cy="-522" rx="53.8905" ry="18"/>
<text text-anchor="middle" x="251.945" y="-518.3" font-family="Times New Roman,serif" font-size="14.00">[BRANCH]</text>
</g>
<!-- FunctionCallStatementxx1501506879&#45;&gt;BranchStatementxx1038416182 -->
<g id="edge12" class="edge"><title>FunctionCallStatementxx1501506879&#45;&gt;BranchStatementxx1038416182</title>
<path fill="none" stroke="black" d="M260.979,-575.697C259.657,-567.983 258.067,-558.712 256.593,-550.112"/>
<polygon fill="black" stroke="black" points="260.017,-549.369 254.877,-540.104 253.117,-550.552 260.017,-549.369"/>
</g>
<!-- BranchStatementxx1582527589 -->
<g id="node7" class="node"><title>BranchStatementxx1582527589</title>
<ellipse fill="none" stroke="black" cx="53.9452" cy="-378" rx="53.8905" ry="18"/>
<text text-anchor="middle" x="53.9452" y="-374.3" font-family="Times New Roman,serif" font-size="14.00">[BRANCH]</text>
</g>
<!-- BranchStatementxx1038416182&#45;&gt;BranchStatementxx1582527589 -->
<g id="edge3" class="edge"><title>BranchStatementxx1038416182&#45;&gt;BranchStatementxx1582527589</title>
<path fill="none" stroke="black" d="M204.557,-513.243C172.853,-506.027 131.811,-492.543 102.945,-468 83.6063,-451.557 70.5253,-425.475 62.7779,-405.788"/>
<polygon fill="black" stroke="black" points="65.9664,-404.319 59.2078,-396.16 59.4031,-406.753 65.9664,-404.319"/>
</g>
<!-- ValidationStatementxx1502090276 -->
<g id="node17" class="node"><title>ValidationStatementxx1502090276</title>
<ellipse fill="none" stroke="black" cx="251.945" cy="-450" rx="140.275" ry="18"/>
<text text-anchor="middle" x="251.945" y="-446.3" font-family="Times New Roman,serif" font-size="14.00">[INPUT_VALIDATION][OTHER]</text>
</g>
<!-- BranchStatementxx1038416182&#45;&gt;ValidationStatementxx1502090276 -->
<g id="edge14" class="edge"><title>BranchStatementxx1038416182&#45;&gt;ValidationStatementxx1502090276</title>
<path fill="none" stroke="black" d="M251.945,-503.697C251.945,-495.983 251.945,-486.712 251.945,-478.112"/>
<polygon fill="black" stroke="black" points="255.445,-478.104 251.945,-468.104 248.445,-478.104 255.445,-478.104"/>
</g>
<!-- FunctionCallStatementxx1133126455 -->
<g id="node5" class="node"><title>FunctionCallStatementxx1133126455</title>
<ellipse fill="none" stroke="black" cx="251.945" cy="-378" rx="126.178" ry="18"/>
<text text-anchor="middle" x="251.945" y="-374.3" font-family="Times New Roman,serif" font-size="14.00">[FUNCTION_CALL]ACTION</text>
</g>
<!-- FunctionCallStatementxx1497194297 -->
<g id="node6" class="node"><title>FunctionCallStatementxx1497194297</title>
<ellipse fill="none" stroke="black" cx="238.945" cy="-306" rx="156.772" ry="18"/>
<text text-anchor="middle" x="238.945" y="-302.3" font-family="Times New Roman,serif" font-size="14.00">[FUNCTION_CALL]DATA_UPDATE</text>
</g>
<!-- FunctionCallStatementxx1133126455&#45;&gt;FunctionCallStatementxx1497194297 -->
<g id="edge2" class="edge"><title>FunctionCallStatementxx1133126455&#45;&gt;FunctionCallStatementxx1497194297</title>
<path fill="none" stroke="black" d="M248.732,-359.697C247.299,-351.983 245.578,-342.712 243.98,-334.112"/>
<polygon fill="black" stroke="black" points="247.389,-333.297 242.122,-324.104 240.507,-334.575 247.389,-333.297"/>
</g>
<!-- ValidationStatementxx179696085 -->
<g id="node19" class="node"><title>ValidationStatementxx179696085</title>
<ellipse fill="none" stroke="black" cx="238.945" cy="-234" rx="140.275" ry="18"/>
<text text-anchor="middle" x="238.945" y="-230.3" font-family="Times New Roman,serif" font-size="14.00">[INPUT_VALIDATION][OTHER]</text>
</g>
<!-- FunctionCallStatementxx1497194297&#45;&gt;ValidationStatementxx179696085 -->
<g id="edge19" class="edge"><title>FunctionCallStatementxx1497194297&#45;&gt;ValidationStatementxx179696085</title>
<path fill="none" stroke="black" d="M238.945,-287.697C238.945,-279.983 238.945,-270.712 238.945,-262.112"/>
<polygon fill="black" stroke="black" points="242.445,-262.104 238.945,-252.104 235.445,-262.104 242.445,-262.104"/>
</g>
<!-- BranchStatementxx1582527589&#45;&gt;ValidationStatementxx179696085 -->
<g id="edge18" class="edge"><title>BranchStatementxx1582527589&#45;&gt;ValidationStatementxx179696085</title>
<path fill="none" stroke="black" d="M52.82,-359.654C52.5113,-339.854 55.1252,-307.672 72.9452,-288 89.0285,-270.245 111.045,-258.403 133.786,-250.515"/>
<polygon fill="black" stroke="black" points="135.113,-253.765 143.561,-247.371 132.969,-247.101 135.113,-253.765"/>
</g>
<!-- FunctionCallStatementxx1850813823 -->
<g id="node8" class="node"><title>FunctionCallStatementxx1850813823</title>
<ellipse fill="none" stroke="black" cx="238.945" cy="-162" rx="126.178" ry="18"/>
<text text-anchor="middle" x="238.945" y="-158.3" font-family="Times New Roman,serif" font-size="14.00">[FUNCTION_CALL]ACTION</text>
</g>
<!-- FunctionCallStatementxx736402572 -->
<g id="node9" class="node"><title>FunctionCallStatementxx736402572</title>
<ellipse fill="none" stroke="black" cx="238.945" cy="-90" rx="154.873" ry="18"/>
<text text-anchor="middle" x="238.945" y="-86.3" font-family="Times New Roman,serif" font-size="14.00">[FUNCTION_CALL]DATA_DELETE</text>
</g>
<!-- FunctionCallStatementxx1850813823&#45;&gt;FunctionCallStatementxx736402572 -->
<g id="edge4" class="edge"><title>FunctionCallStatementxx1850813823&#45;&gt;FunctionCallStatementxx736402572</title>
<path fill="none" stroke="black" d="M238.945,-143.697C238.945,-135.983 238.945,-126.712 238.945,-118.112"/>
<polygon fill="black" stroke="black" points="242.445,-118.104 238.945,-108.104 235.445,-118.104 242.445,-118.104"/>
</g>
<!-- FunctionCallStatementxx1595278145 -->
<g id="node10" class="node"><title>FunctionCallStatementxx1595278145</title>
<ellipse fill="none" stroke="black" cx="238.945" cy="-18" rx="154.873" ry="18"/>
<text text-anchor="middle" x="238.945" y="-14.3" font-family="Times New Roman,serif" font-size="14.00">[FUNCTION_CALL]DATA_DELETE</text>
</g>
<!-- FunctionCallStatementxx736402572&#45;&gt;FunctionCallStatementxx1595278145 -->
<g id="edge5" class="edge"><title>FunctionCallStatementxx736402572&#45;&gt;FunctionCallStatementxx1595278145</title>
<path fill="none" stroke="black" d="M238.945,-71.6966C238.945,-63.9827 238.945,-54.7125 238.945,-46.1124"/>
<polygon fill="black" stroke="black" points="242.445,-46.1043 238.945,-36.1043 235.445,-46.1044 242.445,-46.1043"/>
</g>
<!-- FunctionCallStatementxx1570803354 -->
<g id="node15" class="node"><title>FunctionCallStatementxx1570803354</title>
<ellipse fill="none" stroke="black" cx="523.945" cy="-522" rx="165.171" ry="18"/>
<text text-anchor="middle" x="523.945" y="-518.3" font-family="Times New Roman,serif" font-size="14.00">[FUNCTION_CALL]DATA_RETRIEVE</text>
</g>
<!-- BranchStatementxx838162443&#45;&gt;FunctionCallStatementxx1570803354 -->
<g id="edge10" class="edge"><title>BranchStatementxx838162443&#45;&gt;FunctionCallStatementxx1570803354</title>
<path fill="none" stroke="black" d="M523.945,-575.697C523.945,-567.983 523.945,-558.712 523.945,-550.112"/>
<polygon fill="black" stroke="black" points="527.445,-550.104 523.945,-540.104 520.445,-550.104 527.445,-550.104"/>
</g>
<!-- ValidationStatementxx139033635 -->
<g id="node18" class="node"><title>ValidationStatementxx139033635</title>
<ellipse fill="none" stroke="black" cx="846.945" cy="-522" rx="140.275" ry="18"/>
<text text-anchor="middle" x="846.945" y="-518.3" font-family="Times New Roman,serif" font-size="14.00">[INPUT_VALIDATION][OTHER]</text>
</g>
<!-- BranchStatementxx838162443&#45;&gt;ValidationStatementxx139033635 -->
<g id="edge16" class="edge"><title>BranchStatementxx838162443&#45;&gt;ValidationStatementxx139033635</title>
<path fill="none" stroke="black" d="M567.843,-583.487C619.335,-572.327 705.666,-553.618 768.703,-539.956"/>
<polygon fill="black" stroke="black" points="769.58,-543.348 778.611,-537.809 768.097,-536.507 769.58,-543.348"/>
</g>
<!-- FunctionCallStatementxx918838100 -->
<g id="node12" class="node"><title>FunctionCallStatementxx918838100</title>
<ellipse fill="none" stroke="black" cx="846.945" cy="-450" rx="126.178" ry="18"/>
<text text-anchor="middle" x="846.945" y="-446.3" font-family="Times New Roman,serif" font-size="14.00">[FUNCTION_CALL]ACTION</text>
</g>
<!-- FunctionCallStatementxx761948295 -->
<g id="node13" class="node"><title>FunctionCallStatementxx761948295</title>
<ellipse fill="none" stroke="black" cx="846.945" cy="-378" rx="156.772" ry="18"/>
<text text-anchor="middle" x="846.945" y="-374.3" font-family="Times New Roman,serif" font-size="14.00">[FUNCTION_CALL]DATA_CREATE</text>
</g>
<!-- FunctionCallStatementxx918838100&#45;&gt;FunctionCallStatementxx761948295 -->
<g id="edge7" class="edge"><title>FunctionCallStatementxx918838100&#45;&gt;FunctionCallStatementxx761948295</title>
<path fill="none" stroke="black" d="M846.945,-431.697C846.945,-423.983 846.945,-414.712 846.945,-406.112"/>
<polygon fill="black" stroke="black" points="850.445,-406.104 846.945,-396.104 843.445,-406.104 850.445,-406.104"/>
</g>
<!-- FunctionCallStatementxx1046286588 -->
<g id="node14" class="node"><title>FunctionCallStatementxx1046286588</title>
<ellipse fill="none" stroke="black" cx="846.945" cy="-306" rx="156.772" ry="18"/>
<text text-anchor="middle" x="846.945" y="-302.3" font-family="Times New Roman,serif" font-size="14.00">[FUNCTION_CALL]DATA_CREATE</text>
</g>
<!-- FunctionCallStatementxx761948295&#45;&gt;FunctionCallStatementxx1046286588 -->
<g id="edge8" class="edge"><title>FunctionCallStatementxx761948295&#45;&gt;FunctionCallStatementxx1046286588</title>
<path fill="none" stroke="black" d="M846.945,-359.697C846.945,-351.983 846.945,-342.712 846.945,-334.112"/>
<polygon fill="black" stroke="black" points="850.445,-334.104 846.945,-324.104 843.445,-334.104 850.445,-334.104"/>
</g>
<!-- FunctionCallStatementxx1235902593 -->
<g id="node16" class="node"><title>FunctionCallStatementxx1235902593</title>
<ellipse fill="none" stroke="black" cx="535.945" cy="-450" rx="126.178" ry="18"/>
<text text-anchor="middle" x="535.945" y="-446.3" font-family="Times New Roman,serif" font-size="14.00">[FUNCTION_CALL]ACTION</text>
</g>
<!-- FunctionCallStatementxx1570803354&#45;&gt;FunctionCallStatementxx1235902593 -->
<g id="edge9" class="edge"><title>FunctionCallStatementxx1570803354&#45;&gt;FunctionCallStatementxx1235902593</title>
<path fill="none" stroke="black" d="M526.912,-503.697C528.234,-495.983 529.823,-486.712 531.297,-478.112"/>
<polygon fill="black" stroke="black" points="534.773,-478.552 533.013,-468.104 527.874,-477.369 534.773,-478.552"/>
</g>
<!-- ValidationStatementxx1502090276&#45;&gt;FunctionCallStatementxx1133126455 -->
<g id="edge13" class="edge"><title>ValidationStatementxx1502090276&#45;&gt;FunctionCallStatementxx1133126455</title>
<path fill="none" stroke="black" d="M251.945,-431.697C251.945,-423.983 251.945,-414.712 251.945,-406.112"/>
<polygon fill="black" stroke="black" points="255.445,-406.104 251.945,-396.104 248.445,-406.104 255.445,-406.104"/>
</g>
<!-- ValidationStatementxx1502090276&#45;&gt;ValidationStatementxx179696085 -->
<g id="edge20" class="edge"><title>ValidationStatementxx1502090276&#45;&gt;ValidationStatementxx179696085</title>
<path fill="none" stroke="black" d="M324.13,-434.538C347.058,-426.649 370.659,-414.538 386.945,-396 419.063,-359.442 433.649,-327.295 404.945,-288 391.655,-269.805 372.047,-257.711 350.923,-249.709"/>
<polygon fill="black" stroke="black" points="352.056,-246.397 341.461,-246.418 349.756,-253.009 352.056,-246.397"/>
</g>
<!-- ValidationStatementxx139033635&#45;&gt;FunctionCallStatementxx918838100 -->
<g id="edge15" class="edge"><title>ValidationStatementxx139033635&#45;&gt;FunctionCallStatementxx918838100</title>
<path fill="none" stroke="black" d="M846.945,-503.697C846.945,-495.983 846.945,-486.712 846.945,-478.112"/>
<polygon fill="black" stroke="black" points="850.445,-478.104 846.945,-468.104 843.445,-478.104 850.445,-478.104"/>
</g>
<!-- ValidationStatementxx179696085&#45;&gt;FunctionCallStatementxx1850813823 -->
<g id="edge17" class="edge"><title>ValidationStatementxx179696085&#45;&gt;FunctionCallStatementxx1850813823</title>
<path fill="none" stroke="black" d="M238.945,-215.697C238.945,-207.983 238.945,-198.712 238.945,-190.112"/>
<polygon fill="black" stroke="black" points="242.445,-190.104 238.945,-180.104 235.445,-190.104 242.445,-190.104"/>
</g>
</g>
</svg>
